<svg id="Capa_1" enable-background="new 0 0 512 512" height="512" viewBox="0 0 512 512" width="512" xmlns="http://www.w3.org/2000/svg"><g><g><g><g><path d="m334.853 512h-157.706c-7.269 0-13.99-3.862-17.651-10.141l-24.735-42.427h242.48l-24.735 42.427c-3.663 6.279-10.384 10.141-17.653 10.141z" fill="#64b9fc"/><path d="m134.76 459.431 17.273 29.627h158.021c6.57 0 10.664 7.127 7.354 12.802-3.657 6.273-10.379 10.134-17.643 10.134h35.092c7.263 0 13.986-3.862 17.643-10.134l24.743-42.427z" fill="#31a7fb"/><g><g><g><g><path d="m255.999 176.894c-4.267 0-7.726-3.459-7.726-7.726v-36.596c0-4.267 3.459-7.726 7.726-7.726s7.726 3.459 7.726 7.726v36.596c0 4.267-3.459 7.726-7.726 7.726z" fill="#b5dbfd"/></g></g><path d="m342.722 372.384c-6.65 5.622-16.629 4.481-21.84-2.456l-1.511-2.015v73.281h-126.744v-157.105l-1.511 2.004c-5.211 6.948-15.19 8.088-21.84 2.467-6.064-5.129-6.855-14.193-2.271-20.679 2.744-3.864 5.231-7.883 7.482-11.953 12.128-21.933 18.14-46.733 18.14-71.8v-13.258c0-9.702 8.839-16.989 18.356-15.129l74.4 14.471 25.674 4.995c4.831.946 8.315 5.17 8.315 10.093v82.653c0 25.067 6.012 49.867 18.14 71.8 2.251 4.07 4.738 8.089 7.482 11.953 4.583 6.485 3.792 15.55-2.272 20.678z" fill="#ffe9d9"/><path d="m342.721 372.38c-6.645 5.625-16.627 4.481-21.84-2.452l-1.514-2.019v73.287h-126.744v-157.103l-1.504 1.999c-5.213 6.954-15.195 8.087-21.84 2.472-6.068-5.13-6.861-14.196-2.277-20.686 2.751-3.863 5.233-7.881 7.479-11.95 12.136-21.932 18.141-46.729 18.141-71.804v-13.258c0-9.694 8.839-16.988 18.358-15.123l74.4 14.474 25.672 4.986c4.832.948 8.314 5.172 8.314 10.096v82.651c0 25.075 6.016 49.871 18.141 71.804 2.256 4.069 4.739 8.087 7.489 11.95 4.586 6.49 3.792 15.556-2.275 20.676z" fill="#ffe9d9"/><path d="m342.722 372.384c-6.65 5.622-16.629 4.481-21.84-2.456l-1.511-2.015v73.281h-27.298v-59.874c0-4.146 3.974-7.053 7.964-5.929 1.342.378 2.73.57 4.122.57 3.433 0 6.896-1.161 9.743-3.577 6.074-5.129 6.865-14.194 2.271-20.679-2.734-3.864-5.221-7.883-7.472-11.953-12.138-21.933-18.14-46.733-18.14-71.8v-88.82c0-3.772-2.045-7.133-5.18-8.921l25.674 4.995c4.831.946 8.315 5.17 8.315 10.093v82.726c0 24.055 5.542 47.867 16.75 69.151 2.605 4.947 5.551 9.851 8.873 14.529 4.584 6.486 3.793 15.551-2.271 20.679z" fill="#fddbbf"/><g><path d="m319.366 368.115v25.878l-24.189-32.471c-2.555-3.42-1.844-8.262 1.576-10.807 3.42-2.555 8.262-1.844 10.817 1.576z" fill="#fdd1a7"/></g><g><path d="m255.999 332.152c-11.493 0-20.843-9.35-20.843-20.843v-12.339c0-4.267 3.459-7.726 7.726-7.726s7.726 3.459 7.726 7.726v12.339c0 2.972 2.418 5.39 5.39 5.39s5.391-2.418 5.391-5.39v-69.034c0-4.267 3.459-7.726 7.726-7.726s7.726 3.459 7.726 7.726v69.034c.002 11.493-9.349 20.843-20.842 20.843z" fill="#fddbbf"/></g><g><path d="m217.515 439.312c-4.267 0-7.726-3.459-7.726-7.726v-45.295c0-4.267 3.459-7.726 7.726-7.726s7.726 3.459 7.726 7.726v45.295c0 4.267-3.459 7.726-7.726 7.726z" fill="#fddbbf"/></g><g><path d="m263.457 439.312c-4.267 0-7.726-3.459-7.726-7.726v-18.832c0-4.267 3.459-7.726 7.726-7.726s7.726 3.459 7.726 7.726v18.832c.001 4.267-3.459 7.726-7.726 7.726z" fill="#fddbbf"/></g><path d="m390.306 468.461h-268.614c-17.029 0-30.833-13.804-30.833-30.833v-1.783c0-5.676 4.601-10.278 10.278-10.278h309.725c5.676 0 10.278 4.601 10.278 10.278v1.783c-.001 17.029-13.805 30.833-30.834 30.833z" fill="#b5dbfd"/><path d="m421.141 435.85v1.782c0 17.03-13.803 30.833-30.833 30.833h-35.89c17.03 0 30.833-13.803 30.833-30.833v-1.782c0-5.684-4.594-10.278-10.278-10.278h35.89c5.674 0 10.278 4.594 10.278 10.278z" fill="#8dcafc"/></g></g></g><g><path d="m240.486 476.706c-8.42 0-15.245-6.825-15.245-15.245v-59.494h30.49v59.494c0 8.42-6.825 15.245-15.245 15.245z" fill="#ffe9d9"/></g></g><g><path d="m295.92 98.011c0 16.421-12.269 24.776-23.2 32.111.453-1.267.721-2.679.721-4.255 0-9.014-10.436-24.879-15.164-41.104-.288-1.02-1.216-1.72-2.277-1.72-1.051 0-1.988.701-2.277 1.72-4.729 16.225-15.164 32.09-15.164 41.104 0 1.576.268 2.988.721 4.255-10.93-7.335-23.2-15.69-23.2-32.111 0-20.604 23.89-56.938 34.707-94.097.67-2.317 2.802-3.914 5.213-3.914s4.543 1.597 5.213 3.915c10.817 37.158 34.707 73.493 34.707 94.096z" fill="#fb7722"/><path d="m295.92 98.011c0 16.421-12.269 24.776-23.2 32.111.453-1.267.721-2.679.721-4.255 0-2.606-.865-5.769-2.215-9.354 3.987-4.873 6.686-10.796 6.686-18.502 0-18.451-19.161-49.5-30.916-82.466 1.38-3.863 2.648-7.737 3.781-11.631.68-2.317 2.812-3.914 5.223-3.914 2.421 0 4.543 1.597 5.213 3.915 10.817 37.158 34.707 73.493 34.707 94.096z" fill="#f2671f"/><path d="m277.908 118.723c0 4.513-1.692 7.92-4.131 10.695-5.077 3.415-9.97 6.571-13.324 10.161-2.424 2.576-6.479 2.576-8.903 0-3.354-3.59-8.248-6.746-13.324-10.161-2.439-2.775-4.131-6.182-4.131-10.695 0-11.312 13.111-31.245 19.049-51.636.366-1.273 1.532-2.15 2.859-2.15 1.326 0 2.493.877 2.858 2.15 5.936 20.39 19.047 40.324 19.047 51.636z" fill="#fde784"/><path d="m277.91 118.723c0 4.513-1.692 7.92-4.131 10.695-5.077 3.415-9.97 6.571-13.324 10.161-2.424 2.576-6.479 2.576-8.903 0-1.525-1.639-3.377-3.179-5.404-4.695 2.843-2.279 6.19-4.467 9.62-6.777 2.439-2.775 4.132-6.182 4.132-10.695 0-8.057-6.647-20.49-12.623-34.34 2.211-5.191 4.292-10.573 5.869-15.985.366-1.273 1.532-2.15 2.858-2.15s2.493.877 2.858 2.15c5.937 20.391 19.048 40.324 19.048 51.636z" fill="#fddd45"/></g></g><g><g><g id="XMLID_255_"><path d="m160.509 114.066c-4.115 0-7.536-3.245-7.714-7.396l-.013-.306c-.182-4.263 3.126-7.867 7.389-8.049 4.278-.183 7.867 3.126 8.049 7.389l.013.306c.182 4.263-3.126 7.867-7.389 8.049-.112.005-.224.007-.335.007z" fill="#fde784"/></g><g id="XMLID_254_"><path d="m160.421 147.068c-4.115 0-7.536-3.245-7.714-7.396l-.013-.306c-.182-4.263 3.126-7.867 7.389-8.049 4.27-.177 7.867 3.126 8.049 7.389l.013.306c.182 4.263-3.126 7.867-7.389 8.049-.112.005-.224.007-.335.007z" fill="#fde784"/></g><g id="XMLID_253_"><path d="m176.112 130.467c-4.1 0-7.516-3.223-7.712-7.361-.202-4.263 3.09-7.881 7.352-8.083l.287-.014c4.259-.214 7.881 3.09 8.084 7.352.202 4.263-3.09 7.881-7.352 8.084l-.287.014c-.124.005-.249.008-.372.008z" fill="#fde784"/></g><g id="XMLID_252_"><path d="m144.518 130.375c-4.099 0-7.515-3.222-7.712-7.36-.202-4.263 3.089-7.882 7.352-8.084l.286-.014c4.264-.196 7.881 3.089 8.084 7.352.202 4.263-3.089 7.882-7.352 8.084l-.286.014c-.125.005-.249.008-.372.008z" fill="#fde784"/></g></g><g><g id="XMLID_251_"><path d="m342.187 42.93c-4.115 0-7.536-3.245-7.714-7.396l-.013-.306c-.182-4.263 3.126-7.867 7.389-8.049 4.276-.187 7.867 3.127 8.049 7.389l.013.306c.182 4.263-3.126 7.867-7.389 8.049-.112.005-.224.007-.335.007z" fill="#fde784"/></g><g id="XMLID_250_"><path d="m342.099 75.932c-4.11 0-7.529-3.237-7.713-7.384l-.014-.306c-.189-4.263 3.113-7.872 7.376-8.061 4.241-.194 7.872 3.113 8.061 7.376l.014.306c.189 4.263-3.113 7.872-7.376 8.061-.116.005-.233.008-.348.008z" fill="#fde784"/></g><g id="XMLID_249_"><path d="m357.79 59.331c-4.093 0-7.507-3.214-7.71-7.347-.21-4.262 3.075-7.887 7.337-8.097l.286-.014c4.253-.212 7.887 3.075 8.097 7.337s-3.075 7.887-7.337 8.097l-.286.014c-.13.007-.259.01-.387.01z" fill="#fde784"/></g><g id="XMLID_248_"><path d="m326.195 59.239c-4.093 0-7.508-3.214-7.71-7.347-.21-4.262 3.076-7.887 7.338-8.097l.287-.014c4.265-.226 7.887 3.076 8.096 7.338.21 4.262-3.076 7.887-7.338 8.097l-.287.014c-.13.006-.259.009-.386.009z" fill="#fde784"/></g></g></g></g></svg>