<svg height="512pt" viewBox="-90 0 512 512" width="512pt" xmlns="http://www.w3.org/2000/svg"><path d="m249.261719 7.5h-167.246094l-74.144531 156.644531 48.976562 224.820313 31.558594-23.09375 54.902344-110.960938c-.242188-2.085937-.011719-4.21875.683594-6.222656-4.679688-2.261719-7.90625-7.058594-7.90625-12.605469s3.226562-10.34375 7.90625-12.605469c-1.707032-4.910156-.601563-10.582031 3.320312-14.507812 3.925781-3.921875 9.597656-5.027344 14.507812-3.320312 2.265626-4.679688 7.058594-7.910157 12.605469-7.910157s10.34375 3.230469 12.605469 7.910157c4.910156-1.707032 10.582031-.601563 14.507812 3.320312 3.921876 3.925781 5.027344 9.597656 3.320313 14.507812 4.679687 2.261719 7.910156 7.058594 7.910156 12.605469s-3.230469 10.34375-7.910156 12.605469c1.707031 4.910156.601563 10.582031-3.320313 14.507812-1.554687 1.550782-3.382812 2.664063-5.328124 3.332032l9.042968 9.042968c-.101562-.738281-.15625-1.492187-.15625-2.261718 0-6.421875 3.738282-11.972656 9.160156-14.59375-1.980468-5.6875-.699218-12.257813 3.84375-16.800782 4.542969-4.542968 11.113282-5.824218 16.796876-3.84375 2.625-5.421874 8.175781-9.160156 14.597656-9.160156 6.425781 0 11.976562 3.738282 14.597656 9.160156 5.6875-1.980468 12.253906-.699218 16.796875 3.84375 4.542969 4.542969 5.824219 11.113282 3.847656 16.800782 5.417969 2.621094 9.15625 8.171875 9.15625 14.59375 0 6.425781-3.738281 11.976562-9.15625 14.597656 1.980469 5.6875.695313 12.253906-3.847656 16.796875s-11.109375 5.824219-16.796875 3.847656c-2.621094 5.421875-8.171875 9.160157-14.597656 9.160157-1.707032 0-3.351563-.265626-4.894532-.753907l-136.511718 68.597657-37.332032 51.023437-4.519531-4.515625 15.78125 72.4375h167.242188l74.144531-340.355469zm0 0" fill="#ffb655"/><path d="m266.234375 309.132812-37.113281 170.367188h-126.964844l-14.410156-66.144531 20.34375-27.800781 136.511718-68.597657c1.542969.488281 3.1875.753907 4.894532.753907 6.425781 0 11.976562-3.742188 14.597656-9.160157.703125.246094 1.417969.4375 2.140625.582031zm-177.828125 56.738282 54.902344-110.960938c-.242188-2.085937-.011719-4.21875.683594-6.222656-4.679688-2.261719-7.90625-7.058594-7.90625-12.605469s3.226562-10.34375 7.90625-12.605469c-1.707032-4.910156-.601563-10.582031 3.320312-14.507812 3.925781-3.921875 9.597656-5.027344 14.507812-3.320312 2.265626-4.679688 7.058594-7.910157 12.605469-7.910157s10.34375 3.230469 12.605469 7.910157c4.910156-1.707032 10.582031-.601563 14.507812 3.320312 3.921876 3.925781 5.027344 9.597656 3.320313 14.507812 4.679687 2.261719 7.910156 7.058594 7.910156 12.605469s-3.230469 10.34375-7.910156 12.605469c1.707031 4.910156.601563 10.582031-3.320313 14.507812-1.554687 1.550782-3.382812 2.664063-5.328124 3.332032l9.042968 9.042968c-.101562-.738281-.15625-1.492187-.15625-2.261718 0-6.421875 3.738282-11.972656 9.160156-14.59375-1.980468-5.6875-.699218-12.257813 3.84375-16.800782 4.542969-4.542968 11.113282-5.824218 16.796876-3.84375 2.625-5.421874 8.175781-9.160156 14.597656-9.160156 6.425781 0 11.976562 3.738282 14.597656 9.160156 5.683594-1.976562 12.246094-.699218 16.785156 3.832032l16.285156-74.761719-63.730468-134.640625h-135.589844l-63.730469 134.640625 44.804688 205.675781zm0 0" fill="#ffb655"/><path d="m277.847656 227.089844c2.636719-2.636719 3.382813-6.449219 2.230469-9.75 3.148437-1.523438 5.320313-4.746094 5.320313-8.476563s-2.171876-6.953125-5.320313-8.476562c1.152344-3.300781.40625-7.117188-2.230469-9.753907-2.636718-2.636718-6.453125-3.382812-9.753906-2.234374-1.523438-3.144532-4.746094-5.316407-8.476562-5.316407-3.730469 0-6.953126 2.171875-8.476563 5.316407-3.300781-1.148438-7.113281-.402344-9.75 2.234374-2.640625 2.636719-3.382813 6.453126-2.234375 9.753907-3.148438 1.519531-5.316406 4.746093-5.316406 8.476562s2.167968 6.953125 5.316406 8.476563c-1.148438 3.300781-.40625 7.113281 2.234375 9.75 2.636719 2.640625 6.449219 3.382812 9.75 2.234375 1.523437 3.148437 4.746094 5.316406 8.476563 5.316406 3.730468 0 6.953124-2.167969 8.476562-5.316406 3.300781 1.148437 7.117188.40625 9.753906-2.234375zm0 0" fill="#ff7956"/><path d="m235.097656 147.664062h-27.105468v-27.101562h-22.96875v27.101562h-27.105469v22.972657h27.105469v27.105469h22.96875v-27.105469h27.105468zm0 0" fill="#ff7956"/><path d="m201.539062 263.195312c3.921876-3.925781 5.027344-9.597656 3.320313-14.507812 4.679687-2.261719 7.910156-7.058594 7.910156-12.605469s-3.230469-10.34375-7.910156-12.605469c1.707031-4.910156.601563-10.582031-3.320313-14.507812-3.925781-3.921875-9.597656-5.027344-14.507812-3.320312-2.261719-4.679688-7.058594-7.910157-12.605469-7.910157s-10.339843 3.230469-12.605469 7.910157c-4.910156-1.707032-10.582031-.601563-14.507812 3.320312-3.921875 3.925781-5.027344 9.597656-3.320312 14.507812-4.679688 2.261719-7.90625 7.058594-7.90625 12.605469s3.226562 10.34375 7.90625 12.605469c-1.707032 4.910156-.601563 10.582031 3.320312 14.507812 3.925781 3.921876 9.597656 5.027344 14.507812 3.320313 2.265626 4.679687 7.058594 7.910156 12.605469 7.910156s10.34375-3.230469 12.605469-7.910156c4.910156 1.707031 10.582031.601563 14.507812-3.320313zm0 0" fill="#ff7956"/><path d="m247.847656 227.089844c2.636719-2.636719 3.382813-6.449219 2.230469-9.75 3.148437-1.523438 5.320313-4.746094 5.320313-8.476563s-2.171876-6.953125-5.320313-8.476562c1.152344-3.300781.40625-7.117188-2.230469-9.753907-2.636718-2.636718-6.453125-3.382812-9.753906-2.234374-1.523438-3.144532-4.746094-5.316407-8.476562-5.316407-3.730469 0-6.953126 2.171875-8.476563 5.316407-3.300781-1.148438-7.113281-.402344-9.75 2.234374-2.640625 2.636719-3.382813 6.453126-2.234375 9.753907-3.148438 1.519531-5.316406 4.746093-5.316406 8.476562s2.167968 6.953125 5.316406 8.476563c-1.148438 3.300781-.40625 7.113281 2.234375 9.75 2.636719 2.640625 6.449219 3.382812 9.75 2.234375 1.523437 3.148437 4.746094 5.316406 8.476563 5.316406 3.730468 0 6.953124-2.167969 8.476562-5.316406 3.300781 1.148437 7.117188.40625 9.753906-2.234375zm0 0" fill="#ff7956"/><path d="m280.890625 304.703125c4.542969-4.542969 5.824219-11.109375 3.847656-16.796875 5.417969-2.621094 9.15625-8.171875 9.15625-14.597656 0-6.421875-3.738281-11.972656-9.15625-14.59375 1.976563-5.6875.695313-12.257813-3.847656-16.800782-4.542969-4.542968-11.109375-5.824218-16.796875-3.84375-2.621094-5.421874-8.171875-9.160156-14.597656-9.160156-6.425782 0-11.976563 3.738282-14.597656 9.160156-5.683594-1.980468-12.253907-.699218-16.796876 3.84375-4.542968 4.542969-5.824218 11.113282-3.847656 16.800782-5.417968 2.621094-9.15625 8.171875-9.15625 14.59375 0 6.425781 3.738282 11.976562 9.15625 14.597656-1.976562 5.6875-.695312 12.253906 3.847656 16.796875 4.542969 4.542969 11.109376 5.824219 16.796876 3.847656 2.621093 5.421875 8.171874 9.160157 14.597656 9.160157 6.425781 0 11.976562-3.738282 14.597656-9.160157 5.6875 1.976563 12.253906.695313 16.796875-3.847656zm0 0" fill="#ff7956"/><path d="m181.742188 228.761719c-4.042969-4.039063-10.597657-4.039063-14.640626 0-4.039062 4.042969-4.039062 10.597656 0 14.640625 4.042969 4.042968 10.597657 4.042968 14.640626 0 4.042968-4.042969 4.042968-10.597656 0-14.640625zm0 0" fill="#ffe477"/><path d="m257.96875 264.835938c-4.683594-4.679688-12.269531-4.679688-16.953125 0-4.679687 4.679687-4.679687 12.269531 0 16.949218 4.683594 4.679688 12.269531 4.679688 16.953125 0 4.679688-4.679687 4.679688-12.269531 0-16.949218zm0 0" fill="#ffe477"/><path d="m70.757812 436.578125-33.375-33.371094 51.023438-37.335937 19.683594 19.683594zm0 0" fill="#fff5cc"/><path d="m234.898438 308.550781c-5.683594 1.976563-12.253907.695313-16.796876-3.847656-4.542968-4.542969-5.824218-11.109375-3.847656-16.796875-4.769531-2.308594-8.234375-6.886719-8.996094-12.332031l-9.054687-9.050781c-2.964844 1.023437-6.207031 1.023437-9.171875-.007813-2.265625 4.679687-7.058594 7.910156-12.605469 7.910156s-10.34375-3.230469-12.605469-7.910156c-4.914062 1.707031-10.585937.601563-14.507812-3.320313-2.324219-2.328124-3.652344-5.265624-4-8.296874l-54.90625 110.972656 19.683594 19.683594 136.519531-68.605469c-4.273437-1.347657-7.785156-4.417969-9.710937-8.398438zm0 0" fill="#fff5cc"/><path d="m205.097656 147.664062h-27.105468v-27.101562h-22.96875v27.101562h-27.105469v22.972657h27.105469v27.105469h22.96875v-27.105469h27.105468zm0 0" fill="#ffe477"/><g fill="#ff7956"><path d="m234.898438 238.070312c1.480468-3.058593 3.890624-5.582031 6.867187-7.199218-1.300781-3.242188-3.78125-5.882813-6.90625-7.394532 1.707031-4.910156.601563-10.582031-3.320313-14.503906-3.925781-3.925781-9.597656-5.03125-14.507812-3.324218-2.261719-4.679688-7.058594-7.90625-12.605469-7.90625-5.238281 0-9.808593 2.878906-12.203125 7.140624 3.382813.140626 6.730469 1.503907 9.316406 4.089844 3.921876 3.921875 5.027344 9.59375 3.320313 14.503906 4.679687 2.265626 7.910156 7.058594 7.910156 12.605469 0 5.550781-3.230469 10.34375-7.910156 12.605469 1.707031 4.914062.601563 10.585938-3.320313 14.507812-1.554687 1.550782-3.382812 2.664063-5.328124 3.335938l9.042968 9.042969c-.101562-.738281-.15625-1.496094-.15625-2.261719 0-6.425781 3.738282-11.976562 9.160156-14.597656-1.980468-5.6875-.699218-12.253906 3.84375-16.800782 4.542969-4.542968 11.113282-5.824218 16.796876-3.84375zm0 0"/><path d="m37.871094 164.144531 74.144531-156.644531h-30l-74.144531 156.644531 48.976562 224.820313 25.875-18.933594zm0 0"/><path d="m189.425781 205.046875c-.921875-.148437-1.859375-.199219-2.792969-.164063.140626.253907.273438.507813.398438.765626.78125-.269532 1.585938-.472657 2.394531-.601563zm0 0"/><path d="m264.496094 237.9375c-.183594-.058594-.367188-.113281-.550782-.167969.046876.101563.097657.199219.148438.300781.132812-.046874.269531-.089843.402344-.132812zm0 0"/><path d="m100.757812 436.578125 37.332032-51.023437 136.511718-68.597657c1.542969.488281 3.1875.753907 4.894532.753907 4.496094 0 8.5625-1.832032 11.5-4.789063l16.085937-73.839844c-4.015625-2.148437-8.746093-2.488281-12.988281-1.011719-2.621094-5.421874-8.171875-9.160156-14.597656-9.160156-6.304688 0-11.769532 3.601563-14.445313 8.859375 5.453125-1.527343 11.550781-.144531 15.839844 4.144531 4.542969 4.542969 5.824219 11.113282 3.847656 16.800782 5.417969 2.621094 9.15625 8.171875 9.15625 14.59375 0 6.425781-3.738281 11.976562-9.15625 14.597656 1.980469 5.6875.695313 12.253906-3.847656 16.796875s-11.109375 5.824219-16.796875 3.847656c-2.621094 5.421875-8.171875 9.160157-14.597656 9.160157-1.707032 0-3.351563-.265626-4.894532-.753907l-136.511718 68.597657-37.332032 51.023437-4.519531-4.515625 15.78125 72.4375h30l-15.78125-72.4375zm0 0"/><path d="m189.425781 205.046875c-.921875-.148437-1.859375-.199219-2.792969-.164063.140626.253907.273438.507813.398438.765626.78125-.269532 1.585938-.472657 2.394531-.601563zm0 0"/><path d="m234.898438 238.070312c1.480468-3.058593 3.890624-5.582031 6.867187-7.199218-1.300781-3.242188-3.78125-5.882813-6.90625-7.394532 1.707031-4.910156.601563-10.582031-3.320313-14.503906-3.925781-3.925781-9.597656-5.03125-14.507812-3.324218-2.261719-4.679688-7.058594-7.90625-12.605469-7.90625-5.238281 0-9.808593 2.878906-12.203125 7.140624 3.382813.140626 6.730469 1.503907 9.316406 4.089844 3.921876 3.921875 5.027344 9.59375 3.320313 14.503906 4.679687 2.265626 7.910156 7.058594 7.910156 12.605469 0 5.550781-3.230469 10.34375-7.910156 12.605469 1.707031 4.914062.601563 10.585938-3.320313 14.507812-1.554687 1.550782-3.382812 2.664063-5.328124 3.335938l9.042968 9.042969c-.101562-.738281-.15625-1.496094-.15625-2.261719 0-6.425781 3.738282-11.976562 9.160156-14.597656-1.980468-5.6875-.699218-12.253906 3.84375-16.800782 4.542969-4.542968 11.113282-5.824218 16.796876-3.84375zm0 0"/><path d="m280.878906 241.902344 2.71875-12.46875c-1.3125-.339844-2.683594-.523438-4.101562-.523438-6.304688 0-11.769532 3.601563-14.449219 8.859375 5.449219-1.523437 11.542969-.148437 15.832031 4.132813zm0 0"/><path d="m138.089844 385.554688 125.203125-62.917969 2.941406-13.503907c-.722656-.144531-1.4375-.335937-2.140625-.582031-2.621094 5.421875-8.171875 9.160157-14.597656 9.160157-1.707032 0-3.351563-.265626-4.898438-.753907l-136.507812 68.597657-20.34375 27.800781 14.410156 66.144531h30l-14.410156-66.144531zm0 0"/><path d="m101.597656 339.214844-37.484375-172.074219 63.730469-134.640625h-30l-63.730469 134.640625 44.804688 205.675781 9.488281-6.945312zm0 0"/><path d="m264.496094 237.9375c-.183594-.058594-.367188-.113281-.550782-.167969.046876.101563.097657.199219.148438.300781.132812-.046874.269531-.089843.402344-.132812zm0 0"/></g><path d="m191.820312 205.648438c.125-.257813.261719-.511719.402344-.761719-.933594-.039063-1.871094.015625-2.796875.164062.8125.125 1.613281.328125 2.394531.597657zm0 0" fill="#ff3f62"/><path d="m177.316406 263.195312c-3.925781-3.925781-5.03125-9.597656-3.324218-14.507812-4.679688-2.261719-7.90625-7.058594-7.90625-12.605469s3.226562-10.34375 7.90625-12.605469c-1.707032-4.910156-.601563-10.582031 3.324218-14.507812 2.582032-2.582031 5.929688-3.945312 9.316406-4.085938-2.398437-4.261718-6.964843-7.144531-12.207031-7.144531-5.546875 0-10.339843 3.230469-12.605469 7.910157-4.910156-1.707032-10.582031-.601563-14.503906 3.320312-3.925781 3.925781-5.03125 9.597656-3.324218 14.507812-4.679688 2.261719-7.90625 7.058594-7.90625 12.605469s3.226562 10.34375 7.90625 12.605469c-1.707032 4.910156-.601563 10.582031 3.324218 14.507812 3.921875 3.921876 9.59375 5.027344 14.503906 3.320313 2.265626 4.679687 7.058594 7.910156 12.605469 7.910156 5.242188 0 9.808594-2.882812 12.207031-7.144531-3.386718-.140625-6.734374-1.5-9.316406-4.085938zm0 0" fill="#ff3f62"/><path d="m191.820312 266.515625c-.78125.269531-1.582031.472656-2.394531.601563.925781.148437 1.863281.203124 2.796875.164062-.144531-.25-.277344-.507812-.402344-.765625zm0 0" fill="#ff3f62"/><path d="m241.390625 227.089844c-2.640625-2.636719-3.382813-6.449219-2.234375-9.75-3.148438-1.523438-5.316406-4.746094-5.316406-8.476563s2.167968-6.953125 5.316406-8.476562c-1.148438-3.300781-.40625-7.117188 2.234375-9.753907.949219-.949218 2.050781-1.652343 3.226563-2.113281-2.089844-.816406-4.410157-.855469-6.523438-.121093-1.523438-3.144532-4.746094-5.316407-8.476562-5.316407-3.730469 0-6.953126 2.171875-8.476563 5.316407-3.300781-1.148438-7.113281-.402344-9.75 2.234374-2.636719 2.636719-3.382813 6.453126-2.234375 9.753907-3.148438 1.519531-5.316406 4.746093-5.316406 8.476562s2.167968 6.953125 5.316406 8.476563c-1.148438 3.300781-.40625 7.113281 2.234375 9.75 2.636719 2.640625 6.449219 3.382812 9.75 2.234375 1.523437 3.148437 4.746094 5.316406 8.476563 5.316406 3.730468 0 6.953124-2.167969 8.476562-5.316406 2.113281.734375 4.433594.695312 6.523438-.121094-1.175782-.457031-2.277344-1.164063-3.226563-2.113281zm0 0" fill="#ff3f62"/><path d="m265.046875 237.769531c-.183594.054688-.367187.109375-.550781.167969.136718.042969.269531.085938.402344.132812.050781-.101562.097656-.199218.148437-.300781zm0 0" fill="#ff3f62"/><path d="m264.898438 308.550781c-.132813.046875-.265626.089844-.402344.132813.183594.058594.367187.113281.550781.164062-.050781-.097656-.097656-.195312-.148437-.296875zm0 0" fill="#ff3f62"/><path d="m248.101562 304.703125c-4.542968-4.542969-5.824218-11.109375-3.84375-16.796875-5.421874-2.621094-9.160156-8.171875-9.160156-14.597656 0-6.421875 3.738282-11.972656 9.160156-14.59375-1.980468-5.6875-.699218-12.257813 3.84375-16.800782 4.292969-4.289062 10.386719-5.671874 15.84375-4.144531-2.679687-5.257812-8.144531-8.859375-14.449218-8.859375-6.421875 0-11.972656 3.738282-14.597656 9.15625-5.683594-1.976562-12.253907-.695312-16.796876 3.847656-4.542968 4.542969-5.824218 11.109376-3.84375 16.796876-5.421874 2.625-9.160156 8.175781-9.160156 14.597656 0 6.425781 3.738282 11.976562 9.160156 14.597656-1.980468 5.6875-.699218 12.253906 3.84375 16.796875 4.542969 4.542969 11.113282 5.824219 16.796876 3.847656 2.625 5.417969 8.175781 9.15625 14.597656 9.15625 6.308594 0 11.769531-3.601562 14.449218-8.859375-5.457031 1.527344-11.554687.148438-15.84375-4.144531zm0 0" fill="#ff3f62"/><path d="m67.382812 403.207031 33.699219-24.660156-12.675781-12.675781-51.023438 37.335937 33.375 33.371094 12.675782-17.320313zm0 0" fill="#ffc477"/><path d="m204.101562 274.421875-7.894531-7.898437c-1.292969.445312-2.636719.695312-3.988281.753906 2.347656 4.175781 6.777344 7.027344 11.882812 7.144531zm0 0" fill="#ffc477"/><path d="m118.40625 365.871094 46.914062-94.8125c-1.457031-1.25-2.65625-2.796875-3.5-4.542969-4.910156 1.710937-10.582031.601563-14.507812-3.320313-2.324219-2.324218-3.652344-5.265624-3.996094-8.296874l-54.910156 110.972656 19.683594 19.6875 19.96875-10.035156zm0 0" fill="#ffc477"/><path d="m189.433594 267.117188c-.8125-.128907-1.617188-.328126-2.402344-.601563-.125.257813-.257812.515625-.398438.765625.933594.039062 1.871094-.015625 2.800782-.164062zm0 0" fill="#ffc477"/><path d="m157.917969 147.664062h20.074219v-27.101562h-22.96875v27.101562h-27.105469v22.972657h27.105469v27.105469h22.96875v-27.105469h-20.074219zm0 0" fill="#ffb655"/><path d="m174.425781 253.925781c4.570313 0 9.144531-1.742187 12.625-5.21875 3.371094-3.371093 5.226563-7.855469 5.226563-12.625s-1.855469-9.25-5.226563-12.621093c-6.960937-6.960938-18.289062-6.960938-25.246093 0-3.371094 3.371093-5.230469 7.851562-5.230469 12.621093s1.859375 9.253907 5.230469 12.625c3.480468 3.480469 8.050781 5.21875 12.621093 5.21875zm-2.015625-19.859375c1.113282-1.113281 2.921875-1.113281 4.03125 0 1.113282 1.113282 1.113282 2.917969 0 4.03125-1.109375 1.113282-2.917968 1.113282-4.03125 0-1.109375-1.109375-1.109375-2.917968 0-4.03125zm0 0"/><path d="m235.71875 259.53125c-7.597656 7.597656-7.597656 19.960938 0 27.558594 3.679688 3.679687 8.570312 5.707031 13.777344 5.707031 5.203125 0 10.097656-2.027344 13.777344-5.707031 7.597656-7.597656 7.597656-19.960938 0-27.558594-7.59375-7.597656-19.957032-7.597656-27.554688 0zm16.949219 16.949219c-1.753907 1.753906-4.589844 1.753906-6.34375 0-1.75-1.746094-1.75-4.59375 0-6.34375s4.597656-1.746094 6.34375 0c1.75 1.75 1.75 4.597656 0 6.34375zm0 0"/><path d="m293.050781 255.269531c.527344-6.820312-1.914062-13.714843-6.855469-18.65625-4.945312-4.945312-11.835937-7.382812-18.65625-6.859375-2.597656-3.03125-5.929687-5.367187-9.644531-6.785156.117188-.765625.183594-1.535156.195313-2.3125 3.019531-3.117188 4.808594-7.34375 4.808594-11.792969 0-4.453125-1.789063-8.679687-4.808594-11.792969-.066406-4.335937-1.792969-8.59375-4.941406-11.738281-3.144532-3.148437-7.398438-4.871093-11.738282-4.941406-3.113281-3.019531-7.34375-4.808594-11.792968-4.808594-4.449219 0-8.679688 1.789063-11.792969 4.808594-4.335938.070313-8.59375 1.792969-11.738281 4.941406-3.148438 3.144531-4.871094 7.402344-4.941407 11.738281-.558593.578126-1.078125 1.195313-1.550781 1.84375-2.898438-1.144531-6.027344-1.664062-9.152344-1.5-4.027344-4.476562-9.851562-7.171874-16.015625-7.171874-6.164062 0-11.988281 2.695312-16.015625 7.171874-6.011718-.316406-12.042968 1.898438-16.398437 6.253907-4.359375 4.355469-6.570313 10.382812-6.253907 16.398437-4.476562 4.027344-7.171874 9.855469-7.171874 16.015625 0 6.164063 2.695312 11.988281 7.171874 16.015625-.019531.40625-.03125.8125-.027343 1.21875l-53.234375 107.585938-56.605469 41.421875 45.75 45.746093 28.949219-39.5625v20.207032h15v-25.050782l15.191406 15.191407 10.609375-10.605469-20.65625-20.652344 124.8125-62.722656c1.292969.222656 2.613281.335938 3.949219.335938 6.988281 0 13.589844-3.148438 18.039062-8.34375 6.824219.527343 13.714844-1.914063 18.65625-6.855469 4.945313-4.945313 7.386719-11.835938 6.859375-18.65625 5.195313-4.453125 8.34375-11.050781 8.34375-18.042969s-3.148437-13.59375-8.34375-18.042969zm-80.628906-48.132812 6.011719-2.90625-2.195313-6.308594c-.1875-.550781-.171875-1.359375.453125-1.984375.628906-.625 1.4375-.644531 1.988282-.453125l6.308593 2.195313 2.90625-6.015626c.253907-.519531.839844-1.082031 1.722657-1.082031.886718 0 1.472656.5625 1.726562 1.082031l2.90625 6.011719 6.308594-2.191406c.546875-.191406 1.359375-.175781 1.984375.453125.625.625.644531 1.433594.453125 1.984375l-2.195313 6.304687 6.015625 2.910157c.523438.253906 1.082032.839843 1.082032 1.726562 0 .882813-.558594 1.46875-1.082032 1.722657l-6.015625 2.910156 2.195313 6.308594c.191406.546874.175781 1.355468-.453125 1.980468-.625.625-1.4375.644532-1.984375.453125l-6.308594-2.191406-2.90625 6.011719c-.253906.523437-.839844 1.082031-1.726562 1.082031-.882813 0-1.46875-.558594-1.722657-1.082031l-2.90625-6.011719-6.308593 2.191406c-.550782.191407-1.359376.171875-1.988282-.453125-.625-.625-.640625-1.433594-.453125-1.984375l2.195313-6.308593-6.011719-2.90625c-.523437-.253907-1.082031-.839844-1.082031-1.726563 0-.882813.558594-1.46875 1.082031-1.722656zm-65.160156 23.089843 6.011719-2.90625-2.195313-6.308593c-.828125-2.378907-.238281-4.957031 1.539063-6.738281 1.777343-1.777344 4.359374-2.367188 6.738281-1.539063l6.308593 2.191406 2.90625-6.011719c1.097657-2.265624 3.339844-3.675781 5.855469-3.675781s4.757813 1.410157 5.855469 3.675781l2.90625 6.011719 6.308594-2.191406c2.378906-.828125 4.960937-.238281 6.738281 1.539063 1.777344 1.78125 2.367187 4.359374 1.539063 6.738281l-2.195313 6.308593 6.015625 2.910157c2.265625 1.09375 3.671875 3.339843 3.671875 5.851562 0 2.515625-1.40625 4.757813-3.671875 5.855469l-6.015625 2.90625 2.195313 6.308594c.828124 2.378906.238281 4.960937-1.539063 6.738281-1.777344 1.78125-4.363281 2.371094-6.738281 1.542969l-6.308594-2.195313-2.90625 6.011719c-1.097656 2.269531-3.339844 3.675781-5.855469 3.675781s-4.757812-1.40625-5.855469-3.675781l-2.90625-6.011719-6.308593 2.195313c-2.378907.828125-4.960938.238281-6.738281-1.542969-1.777344-1.777344-2.367188-4.359375-1.539063-6.738281l2.195313-6.308594-6.011719-2.90625c-2.269531-1.097656-3.675781-3.339844-3.675781-5.855469s1.40625-4.757812 3.675781-5.855469zm-3.199219 40.074219c4.101562 3.15625 9.226562 4.71875 14.347656 4.449219 4.027344 4.476562 9.855469 7.175781 16.015625 7.175781 6.164063 0 11.988281-2.699219 16.015625-7.175781 2.425782.128906 4.847656-.15625 7.164063-.824219.179687 6.761719 3.292969 13.105469 8.335937 17.425781-.527344 6.820313 1.914063 13.710938 6.855469 18.65625 4.121094 4.117188 9.59375 6.496094 15.25 6.875l-118.484375 59.539063-12.046875-12.046875zm-74.191406 154.789063-20.996094-20.996094 38.773438-28.375 10.59375 10.597656zm211.601562-143.933594-6.015625 2.910156 2.195313 6.304688c1.109375 3.1875.320312 6.648437-2.0625 9.03125-2.386719 2.382812-5.84375 3.171875-9.03125 2.0625l-6.308594-2.195313-2.90625 6.011719c-1.472656 3.039062-4.476562 4.925781-7.847656 4.925781s-6.375-1.886719-7.847656-4.921875l-2.90625-6.015625-6.308594 2.195313c-3.183594 1.113281-6.648438.320312-9.03125-2.0625-2.382813-2.382813-3.171875-5.84375-2.0625-9.03125l2.195312-6.308594-6.011718-2.90625c-3.039063-1.46875-4.925782-4.476562-4.925782-7.847656s1.886719-6.375 4.925782-7.84375l6.011718-2.910156-2.195312-6.308594c-1.109375-3.1875-.316406-6.644532 2.066406-9.027344s5.839844-3.175781 9.027344-2.066406l6.308594 2.195312 2.910156-6.011718c1.46875-3.039063 4.476562-4.925782 7.84375-4.925782 3.371094 0 6.375 1.886719 7.847656 4.925782l2.910156 6.011718 6.304688-2.195312c3.1875-1.109375 6.648437-.316406 9.03125 2.0625 2.382812 2.382812 3.171875 5.84375 2.0625 9.03125l-2.191406 6.308594 6.011718 2.90625c3.039063 1.46875 4.921875 4.476562 4.921875 7.847656s-1.886719 6.378906-4.921875 7.847656zm0 0"/><path d="m170.492188 163.136719v19.605469h15v-4.605469h27.105468v-37.972657h-27.105468v-27.101562h-37.96875v27.101562h-27.105469v37.972657h27.105469v4.605469h15v-19.605469h-27.105469v-7.972657h27.105469v-27.101562h7.96875v27.101562h27.105468v7.972657zm0 0"/><path d="m222.117188 201.363281h15v15h-15zm0 0"/><path d="m292.785156 222.484375 12.253906-56.242187-66.855468-141.242188h-145.089844l-66.855469 141.242188 40.378907 185.351562 14.65625-3.191406-39.289063-180.359375 60.605469-128.042969h126.097656l60.605469 128.042969-11.164063 51.25zm0 0"/><path d="m235.164062 487 32.542969-149.390625-14.65625-3.195313-29.972656 137.585938h-114.878906l-7.4375-34.140625-14.65625 3.191406 10.007812 45.949219zm0 0"/><path d="m254.007812 0h-176.738281l-77.269531 163.242188 44.863281 205.941406 14.65625-3.191406-43.777343-200.949219 71.023437-150.042969h157.75l71.019531 150.042969-17.6875 81.191406 14.65625 3.191406 18.773438-86.183593zm0 0"/><path d="m243.21875 497h-155.160156l-7.011719-32.195312-14.65625 3.191406 9.585937 44.003906h179.328126l40.609374-186.417969-14.65625-3.191406zm0 0"/><path d="m264.148438 173.351562-31.925782-67.449218 13.558594-6.417969 31.925781 67.449219zm-36.203126-76.488281-6.417968-13.558593 13.558594-6.417969 6.417968 13.558593zm-10.699218-22.597656-6.414063-13.554687 13.558594-6.417969 6.414063 13.558593zm0 0" fill="#fff"/><path d="m127.847656 356.042969-6.738281-13.402344 25.019531-12.570313 6.734375 13.402344zm33.953125-17.0625-6.738281-13.402344 13.40625-6.734375 6.734375 13.402344zm22.335938-11.226563-6.734375-13.402344 13.402344-6.734374 6.734374 13.402343zm0 0" fill="#fff"/><path d="m216.308594 456.097656-14.65625-3.195312 11.78125-54.078125 14.65625 3.191406zm13.910156-63.851562-14.65625-3.191406 3.191406-14.65625 14.65625 3.191406zm5.320312-24.425782-14.65625-3.191406 3.191407-14.65625 14.65625 3.191406zm0 0" fill="#fff"/></svg>